Coordinates
version=1
nRows=5
nColumns=40
inDegrees=yes

Units are S.I. units (second, meters, Newtons, ...)
If the header above contains a line with 'inDegrees', this indicates whether rotational values are in degrees (yes) or radians (no).

endheader
time	pelvis_tilt	pelvis_list	pelvis_rotation	pelvis_tx	pelvis_ty	pelvis_tz	hip_flexion_r	hip_adduction_r	hip_rotation_r	knee_angle_r	knee_angle_r_beta	ankle_angle_r	subtalar_angle_r	mtp_angle_r	hip_flexion_l	hip_adduction_l	hip_rotation_l	knee_angle_l	knee_angle_l_beta	ankle_angle_l	subtalar_angle_l	mtp_angle_l	lumbar_extension	lumbar_bending	lumbar_rotation	arm_flex_r	arm_add_r	arm_rot_r	elbow_flex_r	pro_sup_r	wrist_flex_r	wrist_dev_r	arm_flex_l	arm_add_l	arm_rot_l	elbow_flex_l	pro_sup_l	wrist_flex_l	wrist_dev_l
      7.77500000	    -23.60158714	     -3.31432310	      9.10693490	     -0.25717160	      1.02520595	      0.01381991	    111.34688887	    -12.69751378	      9.09610427	    112.83518198	      1.96934544	     -3.82936664	    -15.74765491	      0.00000000	     63.90294877	     -2.55714131	      6.04377107	     58.66043483	      1.02381773	    -17.01081095	    -12.11970846	      0.00000000	    -29.58664321	      4.75285605	     -3.21795651	     85.98132252	    -13.69149812	     58.15186904	     16.69005502	     89.17364498	      0.00000000	      0.00000000	     88.02555569	      1.60826469	     18.24590635	     10.20541361	     89.41866629	      0.00000000	      0.00000000
      7.78333333	    -23.74061028	     -3.39624912	      9.00198892	     -0.25768496	      1.02474552	      0.01387914	    111.13553250	    -12.52772384	      8.73901209	    111.31992893	      1.94289928	     -4.23477569	    -15.93013872	      0.00000000	     64.77059134	     -2.67297299	      6.23953302	     60.65427632	      1.05861683	    -16.85883182	    -12.12354758	      0.00000000	    -29.41061581	      4.77321291	     -3.14681030	     86.08467356	    -13.66533253	     58.90850478	     16.57833988	     89.16741197	      0.00000000	      0.00000000	     88.05025344	      1.64319720	     16.81626409	     10.28894796	     89.41579964	      0.00000000	      0.00000000
      7.79166667	    -23.82278038	     -3.19309469	      8.98259415	     -0.25812992	      1.02429110	      0.01373121	    110.85704011	    -12.40682970	      8.70863808	    109.84059861	      1.91708010	     -4.66814897	    -16.53796722	      0.00000000	     65.52750485	     -2.51021162	      6.23989516	     62.65457794	      1.09352868	    -16.83008303	    -12.54040204	      0.00000000	    -29.32163484	      4.54535894	     -3.27668689	     85.84798214	    -13.56252005	     56.76976784	     16.79561278	     89.18190156	      0.00000000	      0.00000000	     88.08899301	      1.64574658	     16.50430665	     10.28848484	     89.41490595	      0.00000000	      0.00000000
      7.80000000	    -23.66206225	     -3.14371182	      8.68905190	     -0.25814709	      1.02404356	      0.01418533	    110.08690321	    -12.00514397	      8.32667556	    108.28727981	      1.88996957	     -4.84720350	    -16.95437358	      0.00000000	     66.11719720	     -2.81528289	      6.25286043	     64.80005034	      1.13097423	    -16.43678104	    -12.33792178	      0.00000000	    -29.48683882	      4.36271611	     -3.12693255	     86.10779412	    -13.49451289	     58.80687693	     16.52849216	     89.16868560	      0.00000000	      0.00000000	     88.03876124	      1.58403609	     17.22274406	     10.28759352	     89.41467504	      0.00000000	      0.00000000
      7.80833333	    -23.37341241	     -3.04434742	      8.46529754	     -0.25822906	      1.02379446	      0.01436919	    109.21420854	    -11.74762636	      7.96054172	    106.66931562	      1.86173077	     -5.35587259	    -17.47792279	      0.00000000	     66.67085481	     -2.98734358	      6.27758158	     67.04753932	      1.17020032	    -16.22697805	    -12.45033672	      0.00000000	    -29.77929810	      4.17943829	     -2.97117618	     86.19824604	    -13.47729162	     59.03042600	     16.46947992	     89.16746509	      0.00000000	      0.00000000	     88.11496215	      1.58001740	     17.68023064	     10.18684882	     89.41647746	      0.00000000	      0.00000000
